<svg width="24" height="24" viewBox="0 0 24 24" fill="none" xmlns="http://www.w3.org/2000/svg">
<path fill-rule="evenodd" clip-rule="evenodd" d="M12.9062 0.59277L14.1022 3.51744C14.2997 4.0003 14.8837 4.19005 15.3273 3.9155L18.014 2.25243C18.74 1.80299 19.6456 2.46088 19.4425 3.29033L18.6911 6.35947C18.567 6.86619 18.9279 7.36297 19.4482 7.40155L22.5993 7.63532C23.4509 7.6985 23.7968 8.76299 23.145 9.31466L20.7331 11.3559C20.3349 11.693 20.3349 12.307 20.7331 12.644L23.145 14.6853C23.7969 15.237 23.451 16.3015 22.5994 16.3647L19.4482 16.5984C18.928 16.637 18.567 17.1338 18.6911 17.6405L19.4425 20.7096C19.6456 21.5391 18.74 22.197 18.014 21.7476L15.3273 20.0845C14.8837 19.8099 14.2997 19.9996 14.1023 20.4825L12.9062 23.4072C12.583 24.1976 11.4637 24.1976 11.1404 23.4072L9.94438 20.4825C9.74689 19.9997 9.16292 19.8099 8.71935 20.0845L6.03261 21.7476C5.30652 22.197 4.40099 21.5391 4.6041 20.7096L5.3555 17.6405C5.47958 17.1338 5.11864 16.637 4.59838 16.5984L1.44725 16.3647C0.595674 16.3015 0.249784 15.237 0.901581 14.6853L3.31344 12.6441C3.71164 12.307 3.71164 11.693 3.31344 11.356L0.901534 9.31466C0.24969 8.76299 0.595581 7.6985 1.44721 7.63532L4.59833 7.40155C5.1186 7.36297 5.47953 6.86619 5.35546 6.35947L4.60405 3.29033C4.40099 2.46088 5.30652 1.80299 6.03257 2.25243L8.7193 3.9155C9.16288 4.1901 9.74685 4.00035 9.94433 3.51744L11.1404 0.59277C11.4636 -0.19759 12.5829 -0.19759 12.9062 0.59277ZM18.3983 12C18.3983 8.48479 15.5384 5.62499 12.0233 5.62499C8.50808 5.62499 5.64828 8.48479 5.64828 12C5.64828 15.5152 8.50808 18.375 12.0233 18.375C15.5384 18.375 18.3983 15.5152 18.3983 12ZM12.0233 16.875C14.7114 16.875 16.8983 14.6881 16.8983 12C16.8983 9.31189 14.7114 7.12499 12.0233 7.12499C9.33519 7.12499 7.14828 9.31189 7.14828 12C7.14828 14.6881 9.33519 16.875 12.0233 16.875Z" fill="#304859"/>
<mask id="mask0_61_304" style="mask-type:luminance" maskUnits="userSpaceOnUse" x="0" y="0" width="24" height="24">
<path fill-rule="evenodd" clip-rule="evenodd" d="M12.9062 0.59277L14.1022 3.51744C14.2997 4.0003 14.8837 4.19005 15.3273 3.9155L18.014 2.25243C18.74 1.80299 19.6456 2.46088 19.4425 3.29033L18.6911 6.35947C18.567 6.86619 18.9279 7.36297 19.4482 7.40155L22.5993 7.63532C23.4509 7.6985 23.7968 8.76299 23.145 9.31466L20.7331 11.3559C20.3349 11.693 20.3349 12.307 20.7331 12.644L23.145 14.6853C23.7969 15.237 23.451 16.3015 22.5994 16.3647L19.4482 16.5984C18.928 16.637 18.567 17.1338 18.6911 17.6405L19.4425 20.7096C19.6456 21.5391 18.74 22.197 18.014 21.7476L15.3273 20.0845C14.8837 19.8099 14.2997 19.9996 14.1023 20.4825L12.9062 23.4072C12.583 24.1976 11.4637 24.1976 11.1404 23.4072L9.94438 20.4825C9.74689 19.9997 9.16292 19.8099 8.71935 20.0845L6.03261 21.7476C5.30652 22.197 4.40099 21.5391 4.6041 20.7096L5.3555 17.6405C5.47958 17.1338 5.11864 16.637 4.59838 16.5984L1.44725 16.3647C0.595674 16.3015 0.249784 15.237 0.901581 14.6853L3.31344 12.6441C3.71164 12.307 3.71164 11.693 3.31344 11.356L0.901534 9.31466C0.24969 8.76299 0.595581 7.6985 1.44721 7.63532L4.59833 7.40155C5.1186 7.36297 5.47953 6.86619 5.35546 6.35947L4.60405 3.29033C4.40099 2.46088 5.30652 1.80299 6.03257 2.25243L8.7193 3.9155C9.16288 4.1901 9.74685 4.00035 9.94433 3.51744L11.1404 0.59277C11.4636 -0.19759 12.5829 -0.19759 12.9062 0.59277ZM18.3983 12C18.3983 8.48479 15.5384 5.62499 12.0233 5.62499C8.50808 5.62499 5.64828 8.48479 5.64828 12C5.64828 15.5152 8.50808 18.375 12.0233 18.375C15.5384 18.375 18.3983 15.5152 18.3983 12ZM12.0233 16.875C14.7114 16.875 16.8983 14.6881 16.8983 12C16.8983 9.31189 14.7114 7.12499 12.0233 7.12499C9.33519 7.12499 7.14828 9.31189 7.14828 12C7.14828 14.6881 9.33519 16.875 12.0233 16.875Z" fill="white"/>
</mask>
<g mask="url(#mask0_61_304)">
<rect width="24" height="24" fill="#304859"/>
</g>
</svg>
